<svg width="602" height="568" viewBox="0 0 602 568" fill="none" xmlns="http://www.w3.org/2000/svg">
<g filter="url(#filter0_d_1103_45)">
<path d="M479.802 328.67V290.281L328.436 355.862H310.909L160.018 327.736L310.909 392.652H330.029L479.802 328.67Z" fill="black"/>
<path d="M330.206 392.63H328.613L311.086 355.841L126.851 318.408H122L311.086 392.63H330.206Z" fill="black"/>
<path d="M480 0L156.256 59.5113V123.347L479.832 64.3253L480 0Z" fill="black"/>
<path d="M480 96.8359L156.256 156.347V220.183L479.832 161.161L480 96.8359Z" fill="black"/>
<path d="M480 194.851L156.256 254.525V312.864L479.83 252.501L480 194.851Z" fill="black"/>
</g>
<path d="M62.688 545V500.264L45.216 533.576H37.824L20.352 500.264V545H7.104V476.84H21.312L41.472 515.624L61.824 476.84H75.936V545H62.688ZM108.695 476.84H122.135L147.191 545H133.559L127.223 528.008H103.415L97.1745 545H83.5425L108.695 476.84ZM124.823 518.696L115.415 490.568L105.623 518.696H124.823ZM154.667 545V476.84H184.811C187.947 476.84 190.827 477.48 193.451 478.76C196.139 480.04 198.443 481.768 200.363 483.944C202.347 486.12 203.851 488.552 204.875 491.24C205.963 493.928 206.507 496.68 206.507 499.496C206.507 502.376 205.995 505.16 204.971 507.848C204.011 510.472 202.603 512.776 200.747 514.76C198.891 516.744 196.715 518.28 194.219 519.368L209.771 545H195.179L181.163 522.152H167.915V545H154.667ZM167.915 510.536H184.523C186.187 510.536 187.659 510.056 188.939 509.096C190.219 508.072 191.243 506.728 192.011 505.064C192.779 503.4 193.163 501.544 193.163 499.496C193.163 497.32 192.715 495.432 191.819 493.832C190.923 492.168 189.771 490.856 188.363 489.896C187.019 488.936 185.547 488.456 183.947 488.456H167.915V510.536ZM218.51 545V476.84H231.758V533.384H266.51V545H218.51ZM321.901 533.384V545H274.573V476.84H321.037V488.456H287.821V504.872H316.525V515.624H287.821V533.384H321.901ZM379.557 533.384V545H332.229V476.84H378.693V488.456H345.477V504.872H374.181V515.624H345.477V533.384H379.557ZM403.133 501.224V545H389.885V476.84H400.445L435.677 521.768V476.936H448.925V545H437.885L403.133 501.224ZM515.639 522.344C518.327 522.792 520.663 523.816 522.647 525.416C524.631 526.952 526.167 528.936 527.255 531.368C528.407 533.8 528.983 536.488 528.983 539.432C528.983 543.4 527.959 546.856 525.911 549.8C523.863 552.744 520.951 555.016 517.175 556.616C513.463 558.28 509.079 559.112 504.023 559.112C499.159 559.112 494.839 558.312 491.062 556.712C487.351 555.176 484.247 552.904 481.751 549.896L489.047 540.776C490.711 542.824 492.695 544.424 494.999 545.576C497.367 546.792 500.247 547.4 503.639 547.4C507.543 547.4 510.519 546.6 512.567 545C514.615 543.464 515.639 541.128 515.639 537.992C515.639 534.664 514.455 532.104 512.087 530.312C509.719 528.52 506.135 527.624 501.335 527.624H498.647V518.024H501.623C505.527 518.024 508.567 517.128 510.743 515.336C512.983 513.544 514.103 511.304 514.103 508.616C514.103 506.888 513.687 505.448 512.855 504.296C512.023 503.144 510.871 502.28 509.399 501.704C507.991 501.128 506.326 500.84 504.406 500.84C501.527 500.84 498.903 501.512 496.535 502.856C494.167 504.2 492.247 506.088 490.775 508.52L482.711 499.496C484.055 497.512 485.879 495.816 488.183 494.408C490.551 492.936 493.239 491.784 496.247 490.952C499.319 490.12 502.519 489.704 505.847 489.704C510.199 489.704 514.007 490.408 517.271 491.816C520.599 493.224 523.191 495.208 525.047 497.768C526.903 500.328 527.831 503.304 527.831 506.696C527.831 509.192 527.319 511.56 526.295 513.8C525.271 516.04 523.831 517.928 521.975 519.464C520.183 520.936 518.071 521.896 515.639 522.344ZM539.698 545V476.84H564.466C571.89 476.84 578.098 478.376 583.09 481.448C588.082 484.456 591.826 488.552 594.322 493.736C596.818 498.856 598.066 504.552 598.066 510.824C598.066 517.736 596.69 523.752 593.938 528.872C591.186 533.992 587.282 537.96 582.226 540.776C577.234 543.592 571.314 545 564.466 545H539.698ZM584.722 510.824C584.722 506.408 583.922 502.536 582.322 499.208C580.722 495.816 578.418 493.192 575.41 491.336C572.402 489.416 568.754 488.456 564.466 488.456H552.946V533.384H564.466C568.818 533.384 572.498 532.424 575.506 530.504C578.514 528.52 580.786 525.832 582.322 522.44C583.922 518.984 584.722 515.112 584.722 510.824Z" fill="black"/>
<defs>
<filter id="filter0_d_1103_45" x="118" y="0" width="366" height="400.651" filterUnits="userSpaceOnUse" color-interpolation-filters="sRGB">
<feFlood flood-opacity="0" result="BackgroundImageFix"/>
<feColorMatrix in="SourceAlpha" type="matrix" values="0 0 0 0 0 0 0 0 0 0 0 0 0 0 0 0 0 0 127 0" result="hardAlpha"/>
<feOffset dy="4"/>
<feGaussianBlur stdDeviation="2"/>
<feComposite in2="hardAlpha" operator="out"/>
<feColorMatrix type="matrix" values="0 0 0 0 1 0 0 0 0 1 0 0 0 0 1 0 0 0 0.25 0"/>
<feBlend mode="normal" in2="BackgroundImageFix" result="effect1_dropShadow_1103_45"/>
<feBlend mode="normal" in="SourceGraphic" in2="effect1_dropShadow_1103_45" result="shape"/>
</filter>
</defs>
</svg>
